<?xml version="1.0" standalone="no"?>
<!DOCTYPE svg PUBLIC "-//W3C//DTD SVG 20010904//EN"
 "http://www.w3.org/TR/2001/REC-SVG-20010904/DTD/svg10.dtd">
<svg version="1.0" xmlns="http://www.w3.org/2000/svg"
 width="514.000000pt" height="514.000000pt" viewBox="0 0 514.000000 514.000000"
 preserveAspectRatio="xMidYMid meet">
<metadata>
Created by potrace 1.14, written by Peter Selinger 2001-2017
</metadata>
<g transform="translate(0.000000,514.000000) scale(0.100000,-0.100000)"
fill="#000000" stroke="none">
<path d="M2472 4764 c-220 -123 -469 -268 -482 -280 -13 -12 -15 -62 -17 -301
-2 -158 -6 -290 -10 -294 -8 -7 -374 -193 -383 -194 -3 0 -15 -6 -27 -13 -13
-7 -24 -11 -24 -10 -1 2 -2 46 -3 98 -1 52 -7 104 -13 114 -12 22 -535 324
-566 327 -27 3 -40 -3 -141 -61 -44 -26 -101 -58 -126 -72 -25 -14 -94 -53
-155 -88 -60 -35 -120 -68 -132 -74 -40 -20 -45 -52 -44 -298 0 -400 -1 -383
19 -405 9 -11 89 -61 177 -110 88 -50 176 -100 195 -112 19 -12 49 -28 66 -35
59 -28 58 -22 56 -334 -1 -158 -2 -304 -2 -324 l0 -36 -177 -103 c-298 -171
-313 -181 -323 -200 -14 -25 -14 -634 0 -658 5 -11 36 -34 67 -52 32 -18 156
-88 276 -157 194 -111 221 -123 251 -118 19 4 45 15 59 26 14 11 28 20 31 20
3 0 29 14 58 31 29 18 69 41 88 51 19 11 85 49 147 85 l113 65 96 -59 c52 -32
106 -65 119 -73 229 -142 282 -176 293 -187 8 -8 13 -48 15 -113 3 -92 5 -102
27 -124 22 -20 226 -140 388 -227 28 -16 70 -40 92 -54 70 -44 95 -41 212 27
56 32 126 72 153 88 205 115 287 165 297 183 5 11 11 61 13 111 1 50 3 94 4
98 0 4 34 29 74 54 39 26 83 54 97 63 14 9 68 43 120 75 52 31 122 74 155 95
60 38 84 41 115 16 8 -7 20 -14 25 -16 6 -2 104 -57 218 -123 169 -96 213
-117 236 -113 15 3 110 54 212 113 101 58 213 122 249 141 36 19 77 48 92 64
l27 28 0 303 c-1 242 -4 309 -15 333 -12 24 -60 56 -236 155 -121 69 -231 133
-243 142 -21 16 -21 21 -23 339 -1 293 0 324 16 336 9 7 46 30 82 50 36 21 72
42 81 48 9 5 36 21 60 34 144 78 237 135 256 156 21 23 21 31 22 323 0 164 -3
312 -7 328 -7 25 -35 45 -193 136 -101 59 -200 116 -219 126 -19 11 -64 35
-100 55 -72 40 -76 40 -159 -8 -31 -18 -76 -44 -101 -58 -25 -13 -90 -50 -145
-82 -55 -31 -120 -68 -145 -82 -25 -14 -59 -36 -77 -49 -31 -24 -31 -24 -31
-118 0 -53 -3 -100 -6 -105 -6 -9 -407 186 -430 209 -8 8 -11 95 -11 284 0
204 -4 280 -13 297 -11 21 -89 69 -341 210 -25 14 -83 47 -128 72 -45 26 -95
47 -110 47 -15 0 -56 -16 -91 -36z m-327 -1054 c2 0 44 -24 92 -53 48 -29 99
-58 113 -65 37 -18 116 -65 131 -79 12 -10 16 -124 10 -274 -1 -9 -81 -61
-208 -134 -286 -162 -291 -166 -303 -199 -15 -44 -13 -605 3 -636 11 -22 136
-103 265 -172 24 -13 51 -27 60 -33 10 -5 54 -31 98 -57 45 -26 83 -53 86 -60
3 -11 2 -167 -1 -255 -1 -14 -15 -29 -43 -46 -24 -13 -88 -50 -143 -82 -55
-31 -116 -66 -135 -77 -124 -71 -168 -99 -180 -113 -13 -16 -18 -71 -19 -207
-1 -32 -6 -58 -11 -58 -6 0 -89 50 -185 110 -97 61 -180 110 -185 110 -6 0
-10 5 -10 10 0 6 -6 10 -14 10 -37 0 -41 24 -41 314 -1 167 -5 288 -11 299
-10 17 -63 52 -96 63 -10 4 -18 10 -18 15 0 5 -4 9 -10 9 -5 0 -81 41 -167 92
-87 50 -170 98 -186 105 l-27 15 2 331 3 331 85 49 c210 122 291 167 301 167
5 0 9 3 9 8 0 4 18 16 40 26 71 34 73 40 74 191 1 75 5 138 11 144 8 8 177 95
201 104 4 1 75 36 157 78 l151 76 48 -28 c27 -16 51 -29 53 -29z m1201 -75
c136 -68 249 -127 252 -129 2 -3 4 -65 4 -139 -1 -89 3 -140 11 -150 10 -13
302 -187 313 -187 9 0 180 -105 186 -113 5 -8 5 -632 -1 -659 0 -5 -5 -8 -9
-8 -7 0 -117 -61 -182 -100 -8 -5 -76 -44 -150 -85 -74 -42 -143 -85 -152 -96
-15 -17 -16 -51 -16 -292 0 -151 -2 -282 -6 -293 -5 -15 -345 -236 -390 -253
-6 -2 -17 -10 -25 -18 -7 -8 -16 -11 -19 -8 -3 3 -7 59 -8 125 -2 131 -10 154
-60 180 -16 8 -94 53 -174 99 -145 84 -187 108 -231 133 -58 32 -57 30 -57
173 -1 112 2 135 16 148 15 13 354 209 423 245 14 8 39 24 54 36 l29 23 1 304
c0 167 -3 317 -8 332 -9 26 -73 76 -127 100 -8 4 -22 11 -30 17 -13 9 -96 56
-235 135 -87 49 -113 66 -118 78 -2 7 -4 72 -3 145 l1 133 215 124 c118 68
222 124 232 125 9 0 128 -56 264 -125z"/>
</g>
</svg>
